{
  "asset": { "version": "2.0", "generator": "CGLab M5 verification asset" },
  "scene": 0,
  "scenes": [ { "name": "TwoTriangles", "nodes": [0, 1] } ],
  "nodes": [
    { "name": "TriangleA", "mesh": 0 },
    { "name": "TriangleB", "mesh": 0, "translation": [3.44, 0.3, -4.91] }
  ],
  "meshes": [ { "name": "TriangleMesh", "primitives": [ { "attributes": { "POSITION": 0 }, "indices": 1, "material": 0, "mode": 4 } ] } ],
  "materials": [ { "name": "TriangleMaterial", "pbrMetallicRoughness": { "baseColorFactor": [0.8, 0.6, 0.2, 1.0], "metallicFactor": 0.0, "roughnessFactor": 1.0 } } ],
  "accessors": [
    { "name": "positions", "bufferView": 0, "componentType": 5126, "count": 3, "type": "VEC3", "min": [-1.0, -1.0, 0.0], "max": [1.0, 1.0, 0.0] },
    { "name": "indices", "bufferView": 1, "componentType": 5123, "count": 3, "type": "SCALAR" }
  ],
  "bufferViews": [
    { "buffer": 0, "byteOffset": 0, "byteLength": 36, "target": 34962 },
    { "buffer": 0, "byteOffset": 36, "byteLength": 6, "target": 34963 }
  ],
  "buffers": [ { "byteLength": 42, "uri": "data:application/octet-stream;base64," } ]
}
